# xmcd
#
# Track frame offsets:
#	151
#	20506
#	40304
#	72791
#	90732
#	110426
#	130665
#	156896
#	181968
#	205628
#	222668
#	239907
#	279887
#	297588
#
# Disc length: 4142 seconds
#
# Revision: 1
# Processed by: cddbd v1.4PL0 Copyright (c) Steve Scherf et al.
# Submitted via: audiograbber 1.81.03
#
DISCID=d2102c0e
DTITLE=Doug Lynn Band - Take A Ride In My Automobile
DYEAR=1998
DGENRE=Blues
TTITLE0=Walkin' These Blues
TTITLE1=Take A Ride In My Automobile
TTITLE2=Share A Little Shelter
TTITLE3=That's What I Get
TTITLE4=Can't Stop Lov'in You This Way
TTITLE5=C.o.'s Rub Shuffle
TTITLE6=Breakdown And Testify
TTITLE7=Temperature
TTITLE8=One Step Forward Two Steps Back
TTITLE9=Don't Treat Me This Way
TTITLE10=Wrong Kind Of Woman
TTITLE11=F. Lee Bailey Blues
TTITLE12=Take It On Hgome
TTITLE13=Playin The Blues
EXTD=
EXTT0=
EXTT1=
EXTT2=
EXTT3=
EXTT4=
EXTT5=
EXTT6=
EXTT7=
EXTT8=
EXTT9=
EXTT10=
EXTT11=
EXTT12=
EXTT13=
PLAYORDER=
